<svg xmlns="http://www.w3.org/2000/svg" width="2143" height="320" viewBox="0 0 2143 320" fill="none">
<rect width="2143" height="320" rx="2" fill="#EDEDED"/>
<rect x="87" y="96" width="142.95" height="127.067" rx="15" fill="white"/>
<path d="M174.052 138.125H177.667L187.961 127.831L188.468 123.462C169.312 106.554 140.069 108.377 123.161 127.532C118.462 132.852 115.051 139.183 113.195 146.034C114.342 145.563 115.613 145.486 116.808 145.815L137.394 142.419C137.394 142.419 138.441 140.687 138.982 140.797C148.141 130.739 163.554 129.568 174.127 138.125H174.052Z" fill="#EA4335"/>
<path d="M202.625 146.034C200.259 137.321 195.401 129.489 188.647 123.497L174.202 137.941C177.213 140.401 179.627 143.513 181.26 147.042C182.892 150.571 183.702 154.425 183.628 158.313V160.879C190.731 160.879 196.485 166.637 196.485 173.736C196.485 180.839 190.727 186.592 183.628 186.592H157.91L155.344 189.194V204.616L157.91 207.182H183.628C190.809 207.237 197.816 204.98 203.615 200.744C209.414 196.509 213.696 190.52 215.828 183.663C220.197 169.581 214.836 154.293 202.625 146.034Z" fill="#4285F4"/>
<path d="M132.157 207.04H157.874V186.453H132.157C130.325 186.453 128.513 186.061 126.846 185.296L123.232 186.414L112.867 196.709L111.963 200.323C117.778 204.711 124.872 207.07 132.157 207.038" fill="#34A853"/>
<path d="M132.157 140.256C125.19 140.297 118.409 142.513 112.763 146.595C107.116 150.676 102.885 156.42 100.661 163.023C98.4377 169.627 98.3323 176.76 100.359 183.426C102.387 190.093 106.445 195.96 111.968 200.208L126.885 185.293C120.412 182.369 117.538 174.754 120.461 168.281C123.385 161.809 131 158.935 137.473 161.858C140.322 163.15 142.604 165.432 143.897 168.281L158.813 153.365C155.681 149.273 151.645 145.961 147.021 143.687C142.397 141.413 137.31 140.238 132.157 140.256Z" fill="#FBBC05"/>
<path d="M898.8 111C898.8 102.716 905.516 96 913.8 96H1026.75C1035.03 96 1041.75 102.716 1041.75 111V208.067C1041.75 216.351 1035.03 223.067 1026.75 223.067H913.8C905.516 223.067 898.8 216.351 898.8 208.067V111Z" fill="white"/>
<path d="M966.424 120.365C965.895 119.823 965.262 119.392 964.565 119.098C963.867 118.804 963.117 118.652 962.359 118.652C961.602 118.652 960.852 118.804 960.154 119.098C959.456 119.392 958.824 119.823 958.295 120.365H958.267C957.188 121.471 956.587 122.957 956.596 124.503C956.596 126.131 957.235 127.588 958.271 128.628L958.299 128.656C959.32 129.704 960.745 130.348 962.345 130.348C963.95 130.348 965.387 129.704 966.424 128.656L966.435 128.628C967.472 127.588 968.107 126.131 968.107 124.503C968.107 122.883 967.476 121.417 966.435 120.365H966.424ZM962.345 200.413C963.95 200.413 965.387 199.75 966.424 198.71L966.435 198.678C967.472 197.641 968.107 196.172 968.107 194.564C968.107 192.936 967.476 191.475 966.435 190.418H966.424C965.895 189.872 965.261 189.439 964.56 189.144C963.859 188.849 963.106 188.699 962.345 188.703C961.589 188.698 960.84 188.848 960.143 189.143C959.447 189.438 958.818 189.872 958.295 190.418H958.267C957.235 191.475 956.592 192.936 956.592 194.564C956.592 196.176 957.231 197.641 958.267 198.678L958.295 198.71C959.32 199.75 960.745 200.413 962.345 200.413ZM993.675 182.695C995.101 182.314 996.387 181.385 997.178 179.979L997.285 179.773C997.964 178.468 998.126 176.955 997.738 175.536C997.549 174.795 997.214 174.099 996.754 173.488C996.294 172.877 995.717 172.364 995.057 171.978L994.974 171.922C993.672 171.189 992.133 171.001 990.693 171.398C989.264 171.76 987.977 172.728 987.195 174.122C986.401 175.508 986.238 177.1 986.615 178.566C987.008 180.007 987.926 181.309 989.296 182.123H989.303C990.677 182.929 992.23 183.072 993.675 182.695ZM968.242 153.541C967.474 152.755 966.557 152.13 965.544 151.703C964.532 151.275 963.444 151.054 962.345 151.052C960.042 151.052 957.966 152.013 956.461 153.541C954.96 155.07 954.031 157.179 954.031 159.525C954.031 161.872 954.956 163.989 956.461 165.537C957.229 166.319 958.146 166.941 959.158 167.365C960.169 167.789 961.255 168.007 962.351 168.007C963.448 168.007 964.534 167.789 965.545 167.365C966.557 166.941 967.473 166.319 968.242 165.537C969.747 163.989 970.672 161.872 970.672 159.525C970.672 157.179 969.747 155.07 968.242 153.541ZM964.926 143.575C968.274 144.134 971.28 145.766 973.575 148.117H973.591C973.956 148.486 974.314 148.895 974.643 149.304L980.385 145.925C979.628 143.601 979.563 141.107 980.198 138.746C980.612 137.154 981.335 135.658 982.327 134.346C983.319 133.034 984.56 131.93 985.98 131.098L986.079 131.035C987.473 130.225 989.014 129.7 990.613 129.492C992.211 129.283 993.836 129.395 995.391 129.82C998.448 130.653 1001.21 132.683 1002.93 135.704V135.712C1004.64 138.718 1004.98 142.169 1004.17 145.274C1003.76 146.868 1003.04 148.365 1002.04 149.679C1001.05 150.993 999.809 152.098 998.389 152.93L997.602 153.398H997.523C994.861 154.685 991.824 154.968 988.97 154.197C986.644 153.557 984.555 152.255 982.958 150.448L977.224 153.815C978.584 157.505 978.584 161.558 977.224 165.247L982.958 168.607C984.598 166.74 986.687 165.474 988.97 164.858C990.543 164.422 992.189 164.309 993.807 164.527C995.425 164.745 996.983 165.288 998.385 166.125L998.575 166.216V166.224C1001.35 167.929 1003.35 170.642 1004.17 173.793C1005.01 177.016 1004.57 180.443 1002.92 183.342L1002.82 183.553L1002.81 183.533C1001.17 186.322 998.511 188.366 995.395 189.235C993.82 189.66 992.177 189.767 990.56 189.55C988.944 189.333 987.387 188.797 985.98 187.972V187.949C983.114 186.265 981.035 183.513 980.198 180.297C979.566 177.94 979.63 175.45 980.385 173.129L974.643 169.762C974.312 170.169 973.961 170.559 973.591 170.93L973.575 170.949C971.248 173.34 968.218 174.923 964.926 175.468V182.215C967.283 182.722 969.437 183.913 971.121 185.638L971.129 185.653C973.372 187.925 974.758 191.086 974.758 194.56C974.758 198.027 973.368 201.168 971.129 203.451L971.121 203.486C969.977 204.655 968.612 205.583 967.105 206.218C965.598 206.853 963.98 207.181 962.345 207.183C960.713 207.179 959.099 206.851 957.595 206.217C956.091 205.583 954.728 204.656 953.586 203.49H953.578V203.455C951.244 201.085 949.937 197.891 949.941 194.564C949.941 191.09 951.33 187.925 953.578 185.657V185.642H953.586C955.269 183.92 957.42 182.73 959.772 182.219V175.472C956.483 174.929 953.455 173.345 951.132 170.953L951.108 170.934C948.119 167.887 946.446 163.789 946.45 159.521C946.45 155.066 948.245 151.04 951.108 148.117H951.132C953.455 145.722 956.482 144.13 959.772 143.575V136.856C957.422 136.334 955.273 135.143 953.586 133.425H953.578V133.409C951.242 131.034 949.935 127.834 949.941 124.503C949.941 121.044 951.33 117.875 953.578 115.596L953.586 115.588C954.725 114.418 956.087 113.487 957.591 112.851C959.096 112.214 960.712 111.885 962.345 111.883C965.764 111.883 968.862 113.293 971.121 115.584V115.592H971.129C973.372 117.871 974.758 121.04 974.758 124.499C974.758 127.977 973.368 131.118 971.129 133.405L971.121 133.425C969.431 135.143 967.279 136.335 964.926 136.856V143.575ZM997.174 139.091L997.126 139.016C996.366 137.714 995.125 136.762 993.671 136.364C992.94 136.163 992.175 136.11 991.423 136.21C990.67 136.31 989.946 136.559 989.292 136.943H989.299C987.922 137.737 986.996 139.044 986.611 140.501C986.234 141.95 986.397 143.551 987.191 144.944L987.219 144.98C988.013 146.358 989.28 147.279 990.689 147.653C992.107 148.062 993.687 147.887 995.049 147.081L995.125 147.045C996.417 146.256 997.353 144.996 997.734 143.531C998.134 142.035 997.933 140.441 997.174 139.091Z" fill="#231F20"/>
<path d="M1710.6 111C1710.6 102.716 1717.32 96 1725.6 96H1838.55C1846.83 96 1853.55 102.716 1853.55 111V208.067C1853.55 216.351 1846.83 223.067 1838.55 223.067H1725.6C1717.32 223.067 1710.6 216.351 1710.6 208.067V111Z" fill="white"/>
<path d="M1822.05 153.934C1821.66 149.742 1820.5 145.657 1818.63 141.887C1816.83 138.269 1814.43 134.985 1811.52 132.178C1812.86 126.849 1809.88 122.231 1809.88 122.231C1804.75 121.914 1801.49 123.82 1800.29 124.693C1800.08 124.614 1799.88 124.519 1799.68 124.439C1798.8 124.086 1797.91 123.756 1796.99 123.458C1796.07 123.168 1795.12 122.902 1794.17 122.676C1793.02 122.411 1791.86 122.197 1790.69 122.037C1788.45 114.873 1782.02 111.883 1782.02 111.883C1774.86 116.43 1773.5 122.779 1773.5 122.779L1773.43 123.149C1773.04 123.264 1772.63 123.375 1772.24 123.498C1771.7 123.665 1771.15 123.871 1770.6 124.066C1770.06 124.284 1769.51 124.491 1768.98 124.725C1766.8 125.666 1764.73 126.823 1762.79 128.18L1762.54 128.064C1752.63 124.272 1743.82 128.839 1743.82 128.839C1743.01 139.393 1747.77 146.032 1748.72 147.248C1747.51 150.629 1746.7 154.141 1746.31 157.711C1737.14 162.222 1734.43 171.501 1734.43 171.501C1742.07 180.293 1750.99 180.837 1750.99 180.837C1751 180.829 1751.01 180.829 1751.01 180.817C1752.14 182.838 1753.45 184.764 1754.93 186.559C1755.55 187.313 1756.2 188.032 1756.86 188.735C1754.07 196.712 1757.26 203.348 1757.26 203.348C1765.77 203.665 1771.37 199.627 1772.54 198.69C1776.59 200.039 1780.84 200.711 1785.11 200.679H1785.42L1785.64 200.667L1786.07 200.659L1786.48 200.639L1786.49 200.647C1790.5 206.365 1797.56 207.183 1797.56 207.183C1802.58 201.894 1802.87 196.649 1802.87 195.509V195.279C1802.87 195.199 1802.86 195.124 1802.86 195.041C1803.91 194.298 1804.92 193.504 1805.87 192.658C1808.05 190.683 1809.94 188.411 1811.48 185.908C1817.16 186.237 1821.16 182.393 1821.16 182.393C1820.22 176.477 1816.85 173.594 1816.14 173.046L1816.07 172.994L1816.01 172.943C1815.96 172.92 1815.92 172.893 1815.88 172.863C1815.92 172.498 1815.95 172.149 1815.96 171.791C1816.01 171.148 1816.03 170.509 1816.03 169.885V168.881L1816.01 168.492L1815.97 167.955C1815.97 167.783 1815.95 167.611 1815.94 167.439C1815.92 167.272 1815.9 167.11 1815.88 166.943L1815.82 166.451L1815.75 165.966C1814.88 160.235 1812.03 154.991 1807.68 151.155C1804.09 147.984 1799.64 145.964 1794.89 145.357C1793.77 145.218 1792.64 145.154 1791.51 145.167L1791.09 145.175H1790.84L1790.66 145.187L1790.25 145.218C1787.7 145.392 1785.22 146.077 1782.94 147.233C1780.66 148.39 1778.65 149.994 1777.01 151.949C1775.69 153.537 1774.65 155.285 1773.96 157.099C1773.06 159.396 1772.64 161.85 1772.72 164.314L1772.73 164.676C1772.75 164.894 1772.76 165.112 1772.78 165.327C1773.02 167.944 1773.98 170.444 1775.55 172.554C1777.36 174.991 1779.9 176.777 1782.81 177.644C1784.12 178.033 1785.43 178.2 1786.66 178.188C1786.82 178.188 1786.97 178.188 1787.11 178.18L1787.36 178.168C1787.44 178.168 1787.53 178.157 1787.61 178.157C1787.75 178.149 1787.87 178.129 1788 178.117C1788.03 178.117 1788.08 178.105 1788.12 178.105L1788.24 178.085L1788.48 178.053C1788.63 178.034 1788.77 178.007 1788.92 177.974C1789.06 177.942 1789.21 177.922 1789.35 177.879C1790.66 177.567 1791.89 177.008 1792.98 176.231C1793.09 176.151 1793.21 176.068 1793.32 175.973C1793.42 175.892 1793.51 175.792 1793.57 175.678C1793.63 175.564 1793.67 175.439 1793.69 175.31C1793.7 175.181 1793.69 175.05 1793.65 174.925C1793.62 174.8 1793.56 174.684 1793.48 174.583C1793.33 174.405 1793.13 174.283 1792.91 174.239C1792.68 174.196 1792.45 174.233 1792.25 174.345L1791.94 174.511C1791.58 174.686 1791.21 174.841 1790.82 174.972C1790.2 175.16 1789.57 175.288 1788.93 175.353C1788.82 175.365 1788.72 175.377 1788.6 175.377L1788.27 175.385C1788.17 175.385 1788.06 175.385 1787.95 175.377L1787.55 175.353H1787.5L1787.4 175.377C1787.34 175.365 1787.28 175.365 1787.23 175.353C1787.11 175.345 1786.99 175.325 1786.87 175.313C1785.87 175.173 1784.91 174.888 1783.99 174.468C1783.03 174.03 1782.13 173.443 1781.35 172.728C1779.64 171.199 1778.51 169.132 1778.15 166.871C1778.05 166.289 1778.01 165.698 1778.03 165.108L1778.06 164.624V164.533L1778.07 164.41C1778.08 164.326 1778.08 164.251 1778.09 164.171C1778.27 162.357 1778.84 160.603 1779.77 159.033C1780.69 157.463 1781.95 156.113 1783.45 155.078C1784.59 154.307 1785.85 153.729 1787.17 153.371C1788.18 153.1 1789.22 152.966 1790.26 152.97H1790.49L1790.77 152.977L1790.95 152.989H1791.05L1791.33 153.009C1793.61 153.188 1795.82 153.852 1797.82 154.955C1800.56 156.47 1802.77 158.769 1804.19 161.554C1805.07 163.305 1805.61 165.212 1805.76 167.169L1805.78 167.471L1805.79 167.769C1805.8 167.872 1805.8 167.967 1805.8 168.067C1805.8 168.162 1805.81 168.273 1805.8 168.345V168.603L1805.79 168.893L1805.76 169.584C1805.7 170.434 1805.59 171.281 1805.44 172.121C1805.21 173.379 1804.85 174.611 1804.38 175.802C1803.74 177.393 1802.91 178.9 1801.91 180.289C1798.83 184.531 1794.22 187.401 1789.05 188.286C1788.2 188.432 1787.34 188.519 1786.48 188.548L1786.32 188.56H1785.18C1782.87 188.511 1780.58 188.157 1778.37 187.508C1773.04 185.961 1768.33 182.807 1764.87 178.478C1763.73 177.06 1762.73 175.53 1761.9 173.912C1760.26 170.706 1759.3 167.198 1759.07 163.603L1759.05 163.274L1759.04 163.194V162.972L1759.03 162.682V162.301L1759.02 161.888V161.61L1759.03 160.963C1759.06 160.089 1759.13 159.176 1759.24 158.271C1759.47 156.45 1759.84 154.651 1760.36 152.89C1760.86 151.127 1761.49 149.428 1762.23 147.819C1763.64 144.71 1765.6 141.884 1768.02 139.481C1769.17 138.343 1770.44 137.328 1771.8 136.451C1772.47 136.01 1773.16 135.605 1773.88 135.236C1774.23 135.037 1774.6 134.874 1774.96 134.7C1775.15 134.62 1775.33 134.533 1775.51 134.454C1776.44 134.05 1777.38 133.696 1778.35 133.393L1778.92 133.215C1779.12 133.155 1779.31 133.111 1779.51 133.052C1779.9 132.937 1780.29 132.845 1780.69 132.75C1780.88 132.698 1781.08 132.671 1781.28 132.619L1781.88 132.492L1782.48 132.381L1782.78 132.329L1783.08 132.289L1783.68 132.194C1783.91 132.154 1784.14 132.143 1784.36 132.103L1785.03 132.019C1785.18 132.008 1785.32 131.988 1785.45 131.98L1785.74 131.948L1785.89 131.936L1786.05 131.928C1786.28 131.916 1786.51 131.896 1786.73 131.888L1787.08 131.865H1787.17L1787.31 131.853L1787.89 131.825C1790.16 131.747 1792.43 131.914 1794.67 132.321C1797.49 132.846 1800.23 133.754 1802.8 135.021C1805.18 136.19 1807.41 137.644 1809.44 139.35L1809.8 139.655L1810.15 139.965C1810.39 140.172 1810.61 140.39 1810.83 140.596C1811.06 140.803 1811.28 141.017 1811.49 141.232C1811.7 141.45 1811.92 141.657 1812.12 141.883C1814.35 144.225 1816.23 146.869 1817.72 149.737C1817.77 149.841 1817.83 149.944 1817.88 150.047L1818.04 150.357L1818.34 150.976C1818.43 151.179 1818.54 151.373 1818.62 151.584L1818.87 152.179C1819.61 153.902 1820.21 155.682 1820.66 157.5C1820.7 157.674 1820.81 157.826 1820.96 157.929C1821.1 158.032 1821.28 158.08 1821.46 158.064C1821.64 158.05 1821.82 157.967 1821.94 157.832C1822.07 157.697 1822.14 157.519 1822.14 157.333C1822.18 156.357 1822.15 155.221 1822.05 153.934H1822.05Z" fill="#F46800"/>
<path d="M695.85 111C695.85 102.716 702.566 96 710.85 96H823.8C832.084 96 838.8 102.716 838.8 111V208.067C838.8 216.351 832.084 223.067 823.8 223.067H710.85C702.566 223.067 695.85 216.351 695.85 208.067V111Z" fill="white"/>
<path d="M761.503 111.883C759.815 111.935 758.147 112.737 756.753 114.286C755.987 115.158 755.329 116.121 754.796 117.153C753.386 119.801 753.108 122.771 752.588 125.662C751.607 131.068 750.646 136.478 749.705 141.891C749.598 142.526 749.324 142.792 748.736 142.975C741.72 145.183 734.692 147.383 727.703 149.662C726.166 150.158 724.633 150.809 723.279 151.671C719.142 154.312 718.53 158.632 721.631 162.432C723.005 164.108 724.768 165.271 726.73 166.149C731.098 168.094 735.474 170.024 739.834 171.986C739.909 172.026 739.977 172.037 740.044 172.061H740.028L745.214 174.186C745.214 174.277 745.222 174.364 745.214 174.476C744.42 182.536 743.666 190.609 742.911 198.678C742.752 200.342 742.863 201.978 743.443 203.562C744.702 207.017 747.672 208.12 750.912 206.345C752.39 205.535 753.557 204.372 754.633 203.097C760.081 196.653 765.537 190.216 770.965 183.751C771.406 183.223 771.779 183.156 772.406 183.362C773.792 183.827 775.174 184.28 776.556 184.74H776.56C776.639 184.788 776.739 184.82 776.85 184.859L777.414 185.026C782.369 186.678 788.056 188.103 793.015 189.751C794.603 190.276 795.485 190.403 797.165 190.141C798.4 189.95 799.515 189.894 800.453 189.203C802.843 187.893 804.403 185.403 804.376 182.524C804.356 180.829 803.764 179.296 802.986 177.815C799.73 171.636 796.486 165.454 793.214 159.287C792.904 158.699 792.912 158.322 793.361 157.798C798.844 151.385 804.304 144.948 809.772 138.52C810.852 137.249 811.809 135.907 812.365 134.319C813.588 130.832 812.008 128.084 808.394 127.405C806.76 127.128 805.084 127.221 803.49 127.679C795.652 129.748 787.817 131.813 779.991 133.914C779.296 134.1 778.958 133.973 778.581 133.342C775.412 128.002 772.208 122.684 768.968 117.387C768.239 116.166 767.37 115.035 766.379 114.016C764.906 112.546 763.194 111.836 761.507 111.887L761.503 111.883ZM762.186 126.587C762.5 126.802 762.757 127.089 762.936 127.425C766.391 133.167 769.853 138.901 773.296 144.651C773.574 145.119 773.832 145.286 774.396 145.131C780.451 143.503 786.515 141.903 792.578 140.299C794.036 139.909 795.497 139.532 796.958 139.151C796.904 139.448 796.766 139.724 796.561 139.945C791.562 145.822 786.57 151.707 781.555 157.568C781.119 158.084 781.079 158.441 781.396 159.037C785.117 166.196 788.417 172.176 791.316 177.938L776.639 173.892C774.503 173.177 772.363 172.47 770.227 171.752C769.579 171.533 769.234 171.632 768.797 172.149C763.841 178.057 758.854 183.942 753.871 189.835C753.687 190.074 753.439 190.256 753.156 190.359C753.295 188.858 753.426 187.353 753.569 185.848C754.161 179.606 754.748 173.364 755.36 167.122C755.241 165.859 755.824 165.513 754.081 164.957C748.153 162.603 740.795 159.712 734.958 157.393C735.229 157.144 735.556 156.962 735.911 156.861C743.046 154.598 750.186 152.334 757.329 150.091C757.834 149.932 758.119 149.725 758.167 149.165C758.219 148.578 758.366 147.998 758.469 147.414C759.426 142.002 760.387 136.59 761.352 131.182C761.622 129.649 761.908 128.12 762.186 126.587Z" fill="#E25A1C"/>
<path d="M1101.75 111C1101.75 102.716 1108.47 96 1116.75 96H1229.7C1237.98 96 1244.7 102.716 1244.7 111V208.067C1244.7 216.351 1237.98 223.067 1229.7 223.067H1116.75C1108.47 223.067 1101.75 216.351 1101.75 208.067V111Z" fill="white"/>
<path d="M1195.4 149.825C1190.38 127.667 1178.51 120.385 1177.24 117.601C1176.13 116.037 1175.13 113.813 1174.32 111.883C1174.18 113.849 1174.1 114.603 1172.24 116.585C1169.37 118.832 1154.62 131.205 1153.42 156.373C1152.3 179.848 1170.38 193.837 1172.83 195.62L1173.11 195.819C1173.62 199.598 1174.06 203.387 1174.42 207.183H1176.33C1176.78 203.085 1177.46 199.019 1178.35 194.993C1180.01 193.818 1180.75 193.154 1181.73 192.241C1186.35 187.962 1190.03 182.759 1192.52 176.97C1195.01 171.18 1196.26 164.933 1196.18 158.632C1196.22 155.4 1195.77 152.032 1195.4 149.825ZM1174.21 182.366C1174.21 182.366 1174.21 149.443 1175.3 149.447C1176.15 149.447 1177.25 191.915 1177.25 191.915C1175.73 191.737 1174.21 184.927 1174.21 182.366Z" fill="#47A248"/>
<path d="M289.95 111C289.95 102.716 296.666 96 304.95 96H417.9C426.184 96 432.9 102.716 432.9 111V208.067C432.9 216.351 426.184 223.067 417.9 223.067H304.95C296.666 223.067 289.95 216.351 289.95 208.067V111Z" fill="white"/>
<path d="M317.746 168.206L361.624 192.9L401.01 170.862V179.638L361.624 201.87L319.993 178.204L317.75 179.427V182.485L361.624 207.183L405.501 182.493V165.351L403.456 164.124L361.624 187.798L322.443 165.351V156.575L361.624 178.613L405.501 153.923V136.979L403.456 135.756L361.624 159.43L324.484 138.412L361.624 117.395L392.437 134.739L395.09 133.107V130.86L361.624 111.883L317.746 136.78V139.639L361.624 164.326L401.01 142.288V151.262L361.624 173.511L319.993 149.845L317.75 151.068L317.746 168.206Z" fill="#FF3621"/>
<path d="M492.9 111C492.9 102.716 499.616 96 507.9 96H620.85C629.134 96 635.85 102.716 635.85 111V208.067C635.85 216.351 629.134 223.067 620.85 223.067H507.9C499.616 223.067 492.9 216.351 492.9 208.067V111Z" fill="white"/>
<path d="M562.362 107.913C558.22 107.933 554.268 108.282 550.789 108.892C540.538 110.684 538.679 114.437 538.679 121.36V130.501H562.897V133.547H529.589C522.55 133.547 516.387 137.738 514.459 145.71C512.235 154.845 512.137 160.548 514.459 170.087C516.18 177.188 520.292 182.247 527.332 182.247H535.659V171.288C535.659 163.371 542.574 156.388 550.788 156.388H574.979C581.713 156.388 587.088 150.896 587.088 144.2V121.361C587.088 114.861 581.55 109.978 574.979 108.893C570.817 108.207 566.501 107.894 562.361 107.914M549.264 115.266C551.766 115.266 553.809 117.323 553.809 119.852C553.809 122.371 551.766 124.407 549.264 124.407C546.754 124.407 544.72 122.371 544.72 119.852C544.719 117.323 546.754 115.266 549.264 115.266Z" fill="url(#paint0_linear_18_214)"/>
<path d="M592.986 136.821V147.391C592.986 155.585 585.931 162.482 577.888 162.482H553.746C547.134 162.482 541.662 168.056 541.662 174.578V197.246C541.662 203.695 547.356 207.49 553.746 209.34C561.396 211.554 568.733 211.955 577.888 209.34C583.972 207.604 589.971 204.112 589.971 197.246V188.172H565.831V185.148H602.058C609.082 185.148 611.701 180.323 614.144 173.081C616.668 165.625 616.558 158.454 614.144 148.89C612.408 142.002 609.093 136.82 602.058 136.82L592.986 136.821ZM579.408 194.221C581.914 194.221 583.944 196.242 583.944 198.743C583.944 201.252 581.913 203.293 579.408 203.293C576.912 203.293 574.873 201.252 574.873 198.743C574.873 196.242 576.912 194.221 579.408 194.221Z" fill="url(#paint1_linear_18_214)"/>
<path d="M1507.65 111C1507.65 102.716 1514.37 96 1522.65 96H1635.6C1643.88 96 1650.6 102.716 1650.6 111V208.067C1650.6 216.351 1643.88 223.067 1635.6 223.067H1522.65C1514.37 223.067 1507.65 216.351 1507.65 208.067V111Z" fill="white"/>
<path d="M1625.16 169.389L1616.08 129.843C1615.57 127.679 1613.61 125.515 1611.44 124.888L1569.94 112.086C1569.42 111.883 1568.8 111.883 1568.18 111.883C1566.42 111.883 1564.57 112.598 1563.32 113.642L1533.59 141.315C1531.94 142.761 1531.11 145.651 1531.63 147.716L1541.34 190.053C1541.85 192.217 1543.81 194.389 1545.98 195.009L1584.79 206.981C1585.31 207.183 1585.93 207.183 1586.55 207.183C1588.31 207.183 1590.17 206.469 1591.41 205.424L1623.2 175.901C1624.86 174.353 1625.68 171.565 1625.16 169.389ZM1574.27 121.481L1602.77 130.256C1603.9 130.574 1603.9 131.09 1602.77 131.392L1587.8 134.799C1586.66 135.117 1585.12 134.6 1584.29 133.767L1573.86 122.513C1572.93 121.592 1573.13 121.179 1574.27 121.481ZM1592.02 172.593C1592.34 173.729 1591.61 174.356 1590.48 174.043L1559.71 164.545C1558.58 164.231 1558.37 163.302 1559.19 162.48L1582.74 140.585C1583.57 139.755 1584.5 140.068 1584.81 141.204L1592.02 172.593ZM1541.34 144.71L1566.33 121.481C1567.16 120.651 1568.49 120.766 1569.32 121.58L1581.81 135.113C1582.64 135.947 1582.53 137.277 1581.71 138.107L1556.72 161.336C1555.89 162.17 1554.56 162.055 1553.73 161.237L1541.23 147.716C1540.84 147.304 1540.64 146.755 1540.66 146.192C1540.68 145.628 1540.92 145.095 1541.33 144.71H1541.34ZM1547.44 181.575L1540.83 152.561C1540.51 151.429 1541.03 151.21 1541.76 152.044L1552.19 163.302C1553.02 164.132 1553.32 165.779 1553.02 166.911L1548.46 181.571C1548.15 182.703 1547.64 182.703 1547.43 181.571L1547.44 181.575ZM1583.98 198.507L1551.35 188.493C1550.8 188.325 1550.35 187.95 1550.08 187.448C1549.81 186.947 1549.74 186.359 1549.9 185.812L1555.37 168.257C1555.54 167.712 1555.92 167.255 1556.42 166.984C1556.92 166.713 1557.51 166.649 1558.05 166.808L1590.68 176.822C1591.81 177.136 1592.44 178.371 1592.12 179.503L1586.66 197.058C1586.48 197.598 1586.11 198.051 1585.61 198.321C1585.11 198.592 1584.53 198.658 1583.98 198.507H1583.98ZM1612.88 174.762L1591.1 194.993C1590.27 195.823 1589.87 195.509 1590.17 194.377L1594.72 179.709C1595.03 178.577 1596.27 177.434 1597.39 177.231L1612.36 173.824C1613.51 173.523 1613.71 174.039 1612.88 174.754V174.762ZM1615.25 170.433L1597.29 174.559C1597.02 174.628 1596.74 174.642 1596.46 174.602C1596.19 174.561 1595.92 174.466 1595.68 174.322C1595.44 174.178 1595.23 173.988 1595.07 173.763C1594.9 173.538 1594.78 173.282 1594.71 173.01L1587.08 139.767C1587.01 139.495 1587 139.213 1587.04 138.936C1587.08 138.66 1587.17 138.394 1587.32 138.154C1587.46 137.914 1587.65 137.705 1587.88 137.538C1588.1 137.372 1588.36 137.252 1588.63 137.186L1606.59 133.068C1606.86 132.999 1607.14 132.985 1607.42 133.026C1607.69 133.067 1607.96 133.162 1608.2 133.306C1608.44 133.45 1608.65 133.64 1608.81 133.865C1608.98 134.09 1609.1 134.345 1609.17 134.616L1616.8 167.856C1617.12 169.087 1616.4 170.223 1615.25 170.437V170.433Z" fill="#22ADF6"/>
<path d="M1304.7 111C1304.7 102.716 1311.42 96 1319.7 96H1432.65C1440.93 96 1447.65 102.716 1447.65 111V208.067C1447.65 216.351 1440.93 223.067 1432.65 223.067H1319.7C1311.42 223.067 1304.7 216.351 1304.7 208.067V111Z" fill="white"/>
<path d="M1423.57 170.616C1423 168.881 1421.5 167.673 1419.56 167.383C1418.64 167.246 1417.6 167.304 1416.36 167.56C1414.2 168.006 1412.59 168.176 1411.42 168.208C1415.84 160.751 1419.43 152.247 1421.5 144.241C1424.84 131.297 1423.05 125.4 1420.97 122.732C1415.44 115.672 1407.38 111.879 1397.65 111.763C1392.47 111.7 1387.91 112.724 1385.54 113.461C1383.32 113.07 1380.95 112.852 1378.45 112.812C1373.77 112.737 1369.64 113.757 1366.11 115.853C1364.15 115.192 1361.01 114.26 1357.39 113.665C1348.86 112.266 1342 113.356 1336.97 116.906C1330.89 121.204 1328.06 128.672 1328.59 139.102C1328.75 142.413 1330.6 152.488 1333.52 162.043C1335.2 167.536 1336.98 172.096 1338.83 175.6C1341.46 180.569 1344.26 183.495 1347.41 184.546C1349.18 185.134 1352.38 185.546 1355.76 182.736C1356.19 183.254 1356.76 183.768 1357.51 184.246C1358.48 184.853 1359.65 185.348 1360.83 185.642C1365.06 186.7 1369.02 186.435 1372.4 184.953C1372.42 185.554 1372.44 186.129 1372.45 186.625C1372.48 187.43 1372.5 188.219 1372.53 188.957C1372.73 193.948 1373.07 197.828 1374.07 200.543C1374.13 200.693 1374.2 200.92 1374.28 201.162C1374.78 202.698 1375.62 205.271 1377.76 207.286C1379.97 209.373 1382.64 210.013 1385.09 210.013C1386.32 210.013 1387.49 209.852 1388.52 209.631C1392.19 208.846 1396.35 207.65 1399.36 203.363C1402.21 199.31 1403.59 193.206 1403.84 183.589C1403.87 183.317 1403.9 183.057 1403.93 182.81L1403.99 182.302L1404.66 182.361L1404.83 182.372C1408.57 182.542 1413.13 181.751 1415.93 180.449C1418.15 179.421 1425.24 175.674 1423.57 170.616Z" fill="black"/>
<path d="M1417.19 171.599C1406.09 173.889 1405.33 170.131 1405.33 170.131C1417.05 152.745 1421.95 130.675 1417.72 125.273C1406.19 110.539 1386.22 117.508 1385.89 117.688L1385.78 117.708C1383.59 117.252 1381.14 116.981 1378.38 116.936C1373.36 116.854 1369.55 118.253 1366.66 120.445C1366.66 120.445 1331.05 105.774 1332.7 138.895C1333.06 145.941 1342.8 192.21 1354.43 178.234C1358.68 173.124 1362.78 168.803 1362.78 168.803C1364.82 170.158 1367.26 170.849 1369.82 170.601L1370.02 170.432C1369.96 171.066 1369.99 171.687 1370.1 172.422C1367.11 175.768 1367.99 176.355 1362 177.588C1355.94 178.836 1359.5 181.059 1361.82 181.64C1364.64 182.344 1371.16 183.342 1375.56 177.178L1375.39 177.881C1376.56 178.821 1377.38 183.995 1377.25 188.685C1377.11 193.375 1377.01 196.595 1377.94 199.11C1378.86 201.625 1379.79 207.284 1387.66 205.598C1394.23 204.188 1397.64 200.536 1398.11 194.444C1398.45 190.113 1399.21 190.754 1399.26 186.881L1399.87 185.048C1400.58 179.177 1399.98 177.283 1404.03 178.164L1405.02 178.251C1408 178.386 1411.9 177.771 1414.2 176.706C1419.13 174.417 1422.05 170.595 1417.19 171.599H1417.19Z" fill="#336791"/>
<path d="M1368.74 142.046C1367.74 141.907 1366.84 142.036 1366.38 142.383C1366.12 142.578 1366.04 142.804 1366.02 142.96C1365.96 143.372 1366.25 143.828 1366.43 144.063C1366.93 144.729 1367.67 145.186 1368.39 145.287C1368.5 145.302 1368.6 145.309 1368.71 145.309C1369.92 145.309 1371.02 144.366 1371.11 143.67C1371.24 142.798 1369.97 142.217 1368.74 142.046ZM1401.87 142.074C1401.78 141.391 1400.56 141.196 1399.41 141.356C1398.26 141.517 1397.14 142.037 1397.23 142.722C1397.31 143.254 1398.27 144.163 1399.41 144.163C1399.5 144.163 1399.6 144.157 1399.7 144.143C1400.46 144.038 1401.02 143.555 1401.28 143.277C1401.68 142.853 1401.92 142.381 1401.87 142.074Z" fill="white"/>
<path d="M1420.88 171.339C1420.46 170.06 1419.1 169.648 1416.84 170.115C1410.12 171.502 1407.71 170.542 1406.92 169.96C1412.14 162.004 1416.44 152.387 1418.76 143.414C1419.86 139.164 1420.46 135.217 1420.51 131.999C1420.57 128.468 1419.96 125.873 1418.72 124.288C1413.72 117.898 1406.38 114.47 1397.5 114.376C1391.39 114.307 1386.23 115.87 1385.23 116.31C1383.12 115.786 1380.82 115.464 1378.32 115.423C1373.74 115.349 1369.78 116.447 1366.49 118.685C1365.07 118.154 1361.38 116.889 1356.88 116.164C1349.09 114.91 1342.9 115.86 1338.48 118.989C1333.21 122.723 1330.78 129.397 1331.25 138.826C1331.41 141.998 1333.22 151.757 1336.07 161.103C1339.83 173.404 1343.91 180.367 1348.2 181.8C1348.7 181.967 1349.28 182.085 1349.92 182.085C1351.49 182.085 1353.41 181.379 1355.41 178.976C1357.85 176.052 1360.37 173.199 1362.97 170.421C1364.66 171.327 1366.51 171.833 1368.41 171.884C1368.41 171.933 1368.42 171.983 1368.42 172.032C1368.1 172.422 1367.78 172.817 1367.46 173.217C1366.15 174.886 1365.88 175.233 1361.64 176.104C1360.44 176.352 1357.25 177.011 1357.2 179.252C1357.15 181.699 1360.98 182.728 1361.41 182.836C1362.93 183.217 1364.4 183.405 1365.79 183.405C1369.19 183.405 1372.18 182.288 1374.57 180.128C1374.5 188.855 1374.86 197.454 1375.91 200.074C1376.77 202.219 1378.86 207.461 1385.48 207.46C1386.46 207.46 1387.53 207.347 1388.7 207.095C1395.61 205.613 1398.61 202.559 1399.78 195.824C1400.4 192.225 1401.46 183.631 1401.96 179.021C1403.02 179.351 1404.39 179.502 1405.86 179.502C1408.93 179.502 1412.47 178.849 1414.7 177.817C1417.19 176.658 1421.7 173.812 1420.88 171.339ZM1404.43 140.188C1404.4 141.549 1404.22 142.784 1404.02 144.074C1403.8 145.461 1403.58 146.895 1403.53 148.636C1403.47 150.33 1403.68 152.091 1403.89 153.795C1404.3 157.235 1404.73 160.778 1403.08 164.273C1402.81 163.789 1402.57 163.29 1402.36 162.777C1402.15 162.282 1401.71 161.487 1401.09 160.387C1398.71 156.104 1393.11 146.076 1395.98 141.984C1396.83 140.766 1398.99 139.514 1404.43 140.188ZM1397.84 117.132C1405.8 117.307 1412.1 120.286 1416.56 125.983C1419.98 130.353 1416.21 150.238 1405.31 167.392C1405.2 167.253 1405.09 167.114 1404.98 166.975L1404.84 166.803C1407.66 162.151 1407.11 157.548 1406.62 153.467C1406.42 151.792 1406.23 150.21 1406.27 148.724C1406.33 147.15 1406.53 145.799 1406.73 144.493C1406.98 142.883 1407.23 141.218 1407.16 139.255C1407.22 139.049 1407.24 138.805 1407.21 138.517C1407.03 136.634 1404.88 131 1400.5 125.9C1398.11 123.111 1394.61 119.989 1389.84 117.884C1391.89 117.458 1394.7 117.062 1397.84 117.132ZM1353.29 177.218C1351.09 179.865 1349.57 179.358 1349.07 179.191C1345.81 178.104 1342.03 171.219 1338.7 160.3C1335.82 150.853 1334.13 141.352 1334 138.688C1333.58 130.263 1335.62 124.391 1340.07 121.236C1347.31 116.101 1359.22 119.175 1364 120.733C1363.93 120.801 1363.86 120.865 1363.79 120.934C1355.94 128.861 1356.13 142.405 1356.15 143.233C1356.15 143.553 1356.17 144.005 1356.21 144.627C1356.34 146.905 1356.6 151.145 1355.92 155.947C1355.3 160.408 1356.68 164.776 1359.7 167.928C1360.01 168.251 1360.33 168.559 1360.67 168.849C1359.33 170.29 1356.41 173.475 1353.29 177.218ZM1361.68 166.026C1359.25 163.484 1358.14 159.95 1358.65 156.327C1359.36 151.255 1359.09 146.838 1358.95 144.464C1358.93 144.132 1358.92 143.841 1358.91 143.612C1360.05 142.595 1365.37 139.748 1369.16 140.616C1370.89 141.012 1371.94 142.19 1372.38 144.215C1374.65 154.702 1372.68 159.073 1371.1 162.585C1370.77 163.309 1370.46 163.993 1370.2 164.701L1370 165.248C1369.48 166.631 1369 167.916 1368.7 169.137C1366.12 169.13 1363.6 168.024 1361.68 166.025V166.026ZM1362.08 180.168C1361.32 179.98 1360.64 179.652 1360.24 179.38C1360.58 179.223 1361.17 179.009 1362.2 178.797C1367.18 177.773 1367.95 177.05 1369.62 174.919C1370.01 174.43 1370.44 173.876 1371.05 173.201L1371.05 173.201C1371.95 172.193 1372.36 172.364 1373.11 172.674C1373.71 172.924 1374.3 173.682 1374.54 174.517C1374.65 174.911 1374.78 175.658 1374.36 176.24C1370.86 181.15 1365.75 181.087 1362.08 180.168ZM1388.13 204.406C1382.04 205.71 1379.88 202.604 1378.46 199.053C1377.54 196.76 1377.09 186.421 1377.41 175.003C1377.42 174.852 1377.4 174.705 1377.35 174.567C1377.32 174.294 1377.26 174.025 1377.18 173.76C1376.71 172.099 1375.55 170.709 1374.16 170.133C1373.61 169.904 1372.59 169.484 1371.38 169.796C1371.64 168.726 1372.09 167.517 1372.57 166.208L1372.78 165.658C1373.01 165.037 1373.3 164.395 1373.61 163.714C1375.26 160.039 1377.53 155.005 1375.07 143.634C1374.15 139.375 1371.07 137.295 1366.41 137.778C1363.61 138.067 1361.06 139.195 1359.78 139.842C1359.51 139.981 1359.25 140.115 1359.02 140.245C1359.38 135.954 1360.72 127.934 1365.75 122.86C1368.92 119.666 1373.14 118.088 1378.28 118.173C1388.41 118.339 1394.9 123.536 1398.57 127.867C1401.72 131.599 1403.43 135.359 1404.12 137.387C1398.98 136.865 1395.49 137.878 1393.72 140.408C1389.87 145.911 1395.83 156.593 1398.69 161.726C1399.22 162.667 1399.67 163.48 1399.81 163.825C1400.75 166.085 1401.95 167.593 1402.83 168.694C1403.1 169.031 1403.37 169.358 1403.56 169.644C1402.01 170.092 1399.22 171.128 1399.47 176.304C1399.27 178.901 1397.81 191.061 1397.07 195.357C1396.09 201.033 1394 203.147 1388.13 204.406V204.406ZM1413.54 175.323C1411.95 176.061 1409.29 176.614 1406.76 176.733C1403.97 176.864 1402.55 176.421 1402.22 176.148C1402.06 172.922 1403.26 172.585 1404.53 172.229C1404.73 172.173 1404.92 172.118 1405.11 172.052C1405.23 172.147 1405.36 172.242 1405.5 172.334C1407.74 173.815 1411.74 173.975 1417.39 172.809L1417.45 172.796C1416.69 173.509 1415.39 174.465 1413.54 175.323Z" fill="white"/>
<path d="M1913.55 111C1913.55 102.716 1920.27 96 1928.55 96H2041.5C2049.78 96 2056.5 102.716 2056.5 111V208.067C2056.5 216.351 2049.78 223.067 2041.5 223.067H1928.55C1920.27 223.067 1913.55 216.351 1913.55 208.067V111Z" fill="white"/>
<path d="M2016.96 114.35H1992.53C1990.43 114.35 1988.72 116.052 1988.72 118.153V202.711C1988.72 204.812 1990.43 206.515 1992.53 206.515H2016.96C2019.06 206.515 2020.76 204.812 2020.76 202.711V118.153C2020.76 116.052 2019.06 114.35 2016.96 114.35Z" fill="url(#paint2_linear_18_214)"/>
<g filter="url(#filter0_d_18_214)">
<path d="M2001.89 202.711V206.515H1998.09H1973.66C1971.56 206.515 1969.85 204.812 1969.85 202.711V141.121C1969.85 139.02 1971.56 137.318 1973.66 137.318H1998.09C2000.19 137.318 2001.89 139.02 2001.89 141.121V202.711Z" fill="black"/>
</g>
<path d="M2001.89 202.711V206.515H1998.09H1973.66C1971.56 206.515 1969.85 204.812 1969.85 202.711V141.121C1969.85 139.02 1971.56 137.318 1973.66 137.318H1998.09C2000.19 137.318 2001.89 139.02 2001.89 141.121V202.711Z" fill="url(#paint3_linear_18_214)"/>
<path fill-rule="evenodd" clip-rule="evenodd" d="M1983.31 202.711V206.515H1979.51H1955.08C1952.98 206.515 1951.27 204.812 1951.27 202.711V164.236C1951.27 162.135 1952.98 160.432 1955.08 160.432H1979.51C1981.61 160.432 1983.31 162.135 1983.31 164.236V202.711Z" fill="url(#paint4_linear_18_214)"/>
<defs>
<filter id="filter0_d_18_214" x="1969.85" y="127.318" width="72.0383" height="109.197" filterUnits="userSpaceOnUse" color-interpolation-filters="sRGB">
<feFlood flood-opacity="0" result="BackgroundImageFix"/>
<feColorMatrix in="SourceAlpha" type="matrix" values="0 0 0 0 0 0 0 0 0 0 0 0 0 0 0 0 0 0 127 0" result="hardAlpha"/>
<feOffset dx="20" dy="10"/>
<feGaussianBlur stdDeviation="10"/>
<feColorMatrix type="matrix" values="0 0 0 0 0 0 0 0 0 0 0 0 0 0 0 0 0 0 0.0530212 0"/>
<feBlend mode="normal" in2="BackgroundImageFix" result="effect1_dropShadow_18_214"/>
<feBlend mode="normal" in="SourceGraphic" in2="effect1_dropShadow_18_214" result="shape"/>
</filter>
<linearGradient id="paint0_linear_18_214" x1="510.327" y1="110.772" x2="565.729" y2="158.479" gradientUnits="userSpaceOnUse">
<stop stop-color="#5A9FD4"/>
<stop offset="1" stop-color="#306998"/>
</linearGradient>
<linearGradient id="paint1_linear_18_214" x1="590.086" y1="190.139" x2="570.499" y2="162.247" gradientUnits="userSpaceOnUse">
<stop stop-color="#FFD43B"/>
<stop offset="1" stop-color="#FFE873"/>
</linearGradient>
<linearGradient id="paint2_linear_18_214" x1="2004.74" y1="114.35" x2="2004.74" y2="206.515" gradientUnits="userSpaceOnUse">
<stop stop-color="#EBBB14"/>
<stop offset="1" stop-color="#B25400"/>
</linearGradient>
<linearGradient id="paint3_linear_18_214" x1="1985.87" y1="137.318" x2="1985.87" y2="206.515" gradientUnits="userSpaceOnUse">
<stop stop-color="#F9E583"/>
<stop offset="1" stop-color="#DE9800"/>
</linearGradient>
<linearGradient id="paint4_linear_18_214" x1="1967.29" y1="160.432" x2="1967.29" y2="206.515" gradientUnits="userSpaceOnUse">
<stop stop-color="#F9E68B"/>
<stop offset="1" stop-color="#F3CD32"/>
</linearGradient>
</defs>
</svg>
